<svg width="36" height="37" viewBox="0 0 36 37" fill="none" xmlns="http://www.w3.org/2000/svg">
<path d="M8.53125 32.2031C7.13542 32.2031 6.10417 31.8698 5.4375 31.2031C4.77083 30.5365 4.4375 29.5052 4.4375 28.1094V24.7344C4.4375 24.4219 4.33333 24.1562 4.125 23.9375L1.73438 21.5312C0.744792 20.5521 0.25 19.5938 0.25 18.6562C0.25 17.7188 0.744792 16.7552 1.73438 15.7656L4.125 13.3594C4.33333 13.1406 4.4375 12.8802 4.4375 12.5781V9.1875C4.4375 7.78125 4.77083 6.75 5.4375 6.09375C6.10417 5.42708 7.13542 5.09375 8.53125 5.09375H11.9062C12.2292 5.09375 12.4948 4.98958 12.7031 4.78125L15.1094 2.39062C16.099 1.40104 17.0573 0.90625 17.9844 0.90625C18.9219 0.90625 19.8854 1.40104 20.875 2.39062L23.2812 4.78125C23.5 4.98958 23.7656 5.09375 24.0781 5.09375H27.4531C28.8594 5.09375 29.8906 5.43229 30.5469 6.10938C31.2135 6.77604 31.5469 7.80208 31.5469 9.1875V12.5781C31.5469 12.8802 31.6562 13.1406 31.875 13.3594L34.25 15.7656C35.2396 16.7552 35.7344 17.7188 35.7344 18.6562C35.7448 19.5938 35.25 20.5521 34.25 21.5312L31.875 23.9375C31.6562 24.1562 31.5469 24.4219 31.5469 24.7344V28.1094C31.5469 29.5156 31.2135 30.5469 30.5469 31.2031C29.8802 31.8698 28.849 32.2031 27.4531 32.2031H24.0781C23.7656 32.2031 23.5 32.3125 23.2812 32.5312L20.875 34.9219C19.8854 35.901 18.9219 36.3906 17.9844 36.3906C17.0573 36.401 16.099 35.9115 15.1094 34.9219L12.7031 32.5312C12.4948 32.3125 12.2292 32.2031 11.9062 32.2031H8.53125ZM8.53125 29.7188H12.7344C13.2135 29.7188 13.6094 29.8854 13.9219 30.2188L16.8594 33.1719C17.3594 33.6615 17.7344 33.9062 17.9844 33.9062C18.2448 33.9062 18.625 33.6615 19.125 33.1719L22.0781 30.2188C22.3906 29.8854 22.7812 29.7188 23.25 29.7188H27.4531C28.151 29.7188 28.5938 29.625 28.7812 29.4375C28.9688 29.25 29.0625 28.8073 29.0625 28.1094V23.9062C29.0625 23.4479 29.2292 23.0573 29.5625 22.7344L32.5156 19.7969C33.0052 19.2969 33.25 18.9167 33.25 18.6562C33.25 18.3958 33.0052 18.0156 32.5156 17.5156L29.5625 14.5781C29.2292 14.2448 29.0625 13.849 29.0625 13.3906V9.1875C29.0625 8.5 28.9688 8.0625 28.7812 7.875C28.5938 7.67708 28.151 7.57812 27.4531 7.57812H23.25C22.7812 7.57812 22.3906 7.41667 22.0781 7.09375L19.125 4.14062C18.625 3.65104 18.2448 3.40625 17.9844 3.40625C17.7344 3.40625 17.3594 3.65104 16.8594 4.14062L13.9219 7.09375C13.6094 7.41667 13.2135 7.57812 12.7344 7.57812H8.53125C7.82292 7.57812 7.375 7.67188 7.1875 7.85938C7.01042 8.04688 6.92188 8.48958 6.92188 9.1875V13.3906C6.92188 13.849 6.76042 14.2448 6.4375 14.5781L3.48438 17.5156C2.98438 18.0156 2.73438 18.3958 2.73438 18.6562C2.73438 18.9167 2.98438 19.2969 3.48438 19.7969L6.4375 22.7344C6.76042 23.0573 6.92188 23.4479 6.92188 23.9062V28.1094C6.92188 28.8073 7.01562 29.25 7.20312 29.4375C7.39062 29.625 7.83333 29.7188 8.53125 29.7188ZM16.2969 26.0625C16.0365 26.0625 15.7969 26.0052 15.5781 25.8906C15.3698 25.776 15.1667 25.5938 14.9688 25.3438L11.1562 20.6562C10.9167 20.3333 10.7969 20.0104 10.7969 19.6875C10.7969 19.3438 10.9115 19.0521 11.1406 18.8125C11.3802 18.5625 11.6667 18.4375 12 18.4375C12.2188 18.4375 12.4167 18.4844 12.5938 18.5781C12.7812 18.6615 12.9688 18.8281 13.1562 19.0781L16.2344 23.0625L22.7188 12.6562C23.0104 12.1875 23.375 11.9531 23.8125 11.9531C24.1354 11.9531 24.4271 12.0573 24.6875 12.2656C24.9479 12.474 25.0781 12.75 25.0781 13.0938C25.0781 13.2708 25.0365 13.4479 24.9531 13.625C24.8802 13.7917 24.7969 13.9479 24.7031 14.0938L17.5625 25.3438C17.25 25.8229 16.8281 26.0625 16.2969 26.0625Z" fill="#8A3740"/>
</svg>
