<svg width="14" height="16" viewBox="0 0 14 16" fill="none" xmlns="http://www.w3.org/2000/svg">
<path d="M8.43262 15.9893L8.82227 15.1895H12.4248C12.5706 15.1895 12.6755 15.1553 12.7393 15.0869C12.8076 15.0231 12.8418 14.9183 12.8418 14.7725V4.90137C12.8418 4.75098 12.8076 4.64388 12.7393 4.58008C12.6755 4.51172 12.5706 4.47754 12.4248 4.47754H9.84766V3.68457H12.6436C12.958 3.68457 13.2018 3.77799 13.375 3.96484C13.5482 4.15169 13.6348 4.41146 13.6348 4.74414V14.9297C13.6348 15.2624 13.5482 15.5221 13.375 15.709C13.2018 15.8958 12.958 15.9893 12.6436 15.9893H8.43262ZM9.84766 7.76562V6.28223H11.3994C11.5316 6.28223 11.5977 6.34603 11.5977 6.47363V7.57422C11.5977 7.70182 11.5316 7.76562 11.3994 7.76562H9.84766ZM9.84766 10.2539V8.76367H11.3994C11.5316 8.76367 11.5977 8.82747 11.5977 8.95508V10.0557C11.5977 10.1878 11.5316 10.2539 11.3994 10.2539H9.84766ZM9.84766 12.7285V11.2451H11.3994C11.5316 11.2451 11.5977 11.3112 11.5977 11.4434V12.5371C11.5977 12.6647 11.5316 12.7285 11.3994 12.7285H9.84766ZM1.84961 15.9893C1.53516 15.9893 1.29134 15.8958 1.11816 15.709C0.944987 15.5221 0.858398 15.2624 0.858398 14.9297V1.44922C0.858398 1.11654 0.944987 0.856771 1.11816 0.669922C1.29134 0.483073 1.53516 0.389648 1.84961 0.389648H9.2666C9.58561 0.389648 9.82943 0.483073 9.99805 0.669922C10.1712 0.856771 10.2578 1.11654 10.2578 1.44922V14.9297C10.2578 15.2624 10.1712 15.5221 9.99805 15.709C9.82943 15.8958 9.58561 15.9893 9.2666 15.9893H1.84961ZM2.06836 15.1895H9.04785C9.19368 15.1895 9.2985 15.1553 9.3623 15.0869C9.43066 15.0231 9.46484 14.9183 9.46484 14.7725V1.60645C9.46484 1.46061 9.43066 1.35579 9.3623 1.29199C9.2985 1.22363 9.19368 1.18945 9.04785 1.18945H2.06836C1.92708 1.18945 1.82227 1.22363 1.75391 1.29199C1.68555 1.35579 1.65137 1.46061 1.65137 1.60645V14.7725C1.65137 14.9183 1.68555 15.0231 1.75391 15.0869C1.82227 15.1553 1.92708 15.1895 2.06836 15.1895ZM3.39453 4.9834C3.23047 4.9834 3.14844 4.89909 3.14844 4.73047V3.34277C3.14844 3.17415 3.23047 3.08984 3.39453 3.08984H4.80957C4.97363 3.08984 5.05566 3.17415 5.05566 3.34277V4.73047C5.05566 4.89909 4.97363 4.9834 4.80957 4.9834H3.39453ZM6.2998 4.9834C6.1403 4.9834 6.06055 4.89909 6.06055 4.73047V3.34277C6.06055 3.17415 6.1403 3.08984 6.2998 3.08984H7.72168C7.88574 3.08984 7.96777 3.17415 7.96777 3.34277V4.73047C7.96777 4.89909 7.88574 4.9834 7.72168 4.9834H6.2998ZM3.39453 7.80664C3.23047 7.80664 3.14844 7.72461 3.14844 7.56055V6.17285C3.14844 6.00423 3.23047 5.91992 3.39453 5.91992H4.80957C4.97363 5.91992 5.05566 6.00423 5.05566 6.17285V7.56055C5.05566 7.72461 4.97363 7.80664 4.80957 7.80664H3.39453ZM6.2998 7.80664C6.1403 7.80664 6.06055 7.72461 6.06055 7.56055V6.17285C6.06055 6.00423 6.1403 5.91992 6.2998 5.91992H7.72168C7.88574 5.91992 7.96777 6.00423 7.96777 6.17285V7.56055C7.96777 7.72461 7.88574 7.80664 7.72168 7.80664H6.2998ZM3.39453 10.6367C3.23047 10.6367 3.14844 10.5524 3.14844 10.3838V8.99609C3.14844 8.83203 3.23047 8.75 3.39453 8.75H4.80957C4.97363 8.75 5.05566 8.83203 5.05566 8.99609V10.3838C5.05566 10.5524 4.97363 10.6367 4.80957 10.6367H3.39453ZM6.2998 10.6367C6.1403 10.6367 6.06055 10.5524 6.06055 10.3838V8.99609C6.06055 8.83203 6.1403 8.75 6.2998 8.75H7.72168C7.88574 8.75 7.96777 8.83203 7.96777 8.99609V10.3838C7.96777 10.5524 7.88574 10.6367 7.72168 10.6367H6.2998ZM3.66797 15.5723V13.3164C3.66797 13.0612 3.72721 12.8721 3.8457 12.749C3.96419 12.6214 4.15104 12.5576 4.40625 12.5576H6.7168C6.97201 12.5576 7.15885 12.6214 7.27734 12.749C7.39583 12.8721 7.45508 13.0612 7.45508 13.3164V15.5723H6.78516V13.4805C6.78516 13.3118 6.70085 13.2275 6.53223 13.2275H4.59082C4.4222 13.2275 4.33789 13.3118 4.33789 13.4805V15.5723H3.66797Z" fill="#3B3B3B"/>
</svg>
