<svg width="41" height="41" viewBox="0 0 41 41" fill="none" xmlns="http://www.w3.org/2000/svg">
<path d="M34.4646 18.4676L29.0864 11.2968H11.1755L5.78125 18.4676M34.4646 18.4676L20.1229 36.3947M34.4646 18.4676H5.78125M20.1229 36.3947L5.78125 18.4676M20.1229 36.3947L14.7448 18.4676M20.1229 36.3947L25.501 18.4676" stroke="white" stroke-linecap="round" stroke-linejoin="round"/>
<path d="M11.176 11.2968L14.7453 18.4676L20.1234 11.2968L25.5015 18.4676L29.087 11.2968" stroke="white" stroke-linecap="round" stroke-linejoin="round"/>
<path d="M30.7754 8.80285L38.6582 0.920072M38.6582 0.920072L33.5052 1.02228M38.6582 0.920072L38.5559 6.07305" stroke="white" stroke-linecap="round"/>
<path d="M8.65821 31.9201L0.775438 39.8028M0.775438 39.8028L5.92841 39.7006M0.775438 39.8028L0.877648 34.6499" stroke="white" stroke-linecap="round"/>
<path d="M31.7754 31.92L39.6582 39.8028M39.6582 39.8028L39.556 34.6498M39.6582 39.8028L34.5052 39.7006" stroke="white" stroke-linecap="round"/>
<path d="M8.65819 8.80274L0.775418 0.919969M0.775418 0.919969L0.877629 6.07294M0.775418 0.919969L5.92839 1.02218" stroke="white" stroke-linecap="round"/>
</svg>
