<svg width="35" height="33" viewBox="0 0 35 33" fill="none" xmlns="http://www.w3.org/2000/svg">
<path d="M19 32.6562C17.2396 32.6562 15.5573 32.3802 13.9531 31.8281C12.349 31.2865 10.875 30.5156 9.53125 29.5156C8.19792 28.526 7.05208 27.3542 6.09375 26C5.82292 25.6562 5.72396 25.2969 5.79688 24.9219C5.86979 24.5365 6.0625 24.2448 6.375 24.0469C6.70833 23.849 7.04167 23.7969 7.375 23.8906C7.71875 23.974 8.01042 24.1771 8.25 24.5C9.04167 25.6042 9.98958 26.5677 11.0938 27.3906C12.2083 28.2135 13.4323 28.8542 14.7656 29.3125C16.1094 29.7708 17.5208 30 19 30C20.8333 30 22.5521 29.6562 24.1562 28.9688C25.7604 28.2812 27.1719 27.3281 28.3906 26.1094C29.6094 24.8906 30.5625 23.4792 31.25 21.875C31.9375 20.2708 32.2812 18.5521 32.2812 16.7188C32.2812 14.8854 31.9375 13.1667 31.25 11.5625C30.5625 9.94792 29.6094 8.53646 28.3906 7.32812C27.1719 6.10938 25.7604 5.15625 24.1562 4.46875C22.5521 3.78125 20.8333 3.4375 19 3.4375C17.1562 3.4375 15.4323 3.78125 13.8281 4.46875C12.224 5.15625 10.8125 6.10938 9.59375 7.32812C8.38542 8.53646 7.4375 9.94792 6.75 11.5625C6.0625 13.1667 5.71875 14.8854 5.71875 16.7188H3.0625C3.0625 14.5208 3.47396 12.4583 4.29688 10.5312C5.11979 8.60417 6.26042 6.91146 7.71875 5.45312C9.1875 3.98438 10.8854 2.83854 12.8125 2.01562C14.7396 1.19271 16.8021 0.78125 19 0.78125C21.1979 0.78125 23.2604 1.19271 25.1875 2.01562C27.1146 2.83854 28.8073 3.98438 30.2656 5.45312C31.724 6.91146 32.8646 8.60417 33.6875 10.5312C34.5208 12.4583 34.9375 14.5208 34.9375 16.7188C34.9375 18.9167 34.5208 20.9792 33.6875 22.9062C32.8646 24.8333 31.724 26.526 30.2656 27.9844C28.8073 29.4427 27.1146 30.5833 25.1875 31.4062C23.2604 32.2396 21.1979 32.6562 19 32.6562ZM1.14062 13.7031H8.3125C8.67708 13.7031 8.95312 13.7812 9.14062 13.9375C9.32812 14.0833 9.41667 14.2812 9.40625 14.5312C9.40625 14.7708 9.30208 15.0365 9.09375 15.3281L5.60938 20.3125C5.35938 20.6667 5.06771 20.849 4.73438 20.8594C4.40104 20.8594 4.10417 20.6771 3.84375 20.3125L0.34375 15.3438C0.135417 15.0521 0.03125 14.7812 0.03125 14.5312C0.0208333 14.2812 0.109375 14.0833 0.296875 13.9375C0.484375 13.7812 0.765625 13.7031 1.14062 13.7031ZM19.0156 23.5469C18.3385 23.5469 17.6562 23.4479 16.9688 23.25C16.2812 23.0417 15.6771 22.724 15.1562 22.2969C14.6354 21.8594 14.276 21.2969 14.0781 20.6094C14.0156 20.401 13.9844 20.2344 13.9844 20.1094C13.9844 19.8594 14.0677 19.6615 14.2344 19.5156C14.401 19.3698 14.599 19.2969 14.8281 19.2969C15.0365 19.2969 15.2083 19.349 15.3438 19.4531C15.4792 19.5573 15.5938 19.7292 15.6875 19.9688C15.9688 20.7188 16.3906 21.25 16.9531 21.5625C17.526 21.8646 18.2292 22.0156 19.0625 22.0156C19.5833 22.0156 20.0885 21.9479 20.5781 21.8125C21.0781 21.6771 21.4844 21.4479 21.7969 21.125C22.1198 20.7917 22.2812 20.3385 22.2812 19.7656C22.2812 19.0573 22.0104 18.5469 21.4688 18.2344C20.9271 17.9219 20.3073 17.6823 19.6094 17.5156L18.1094 17.1562C17.474 17.0104 16.8594 16.8021 16.2656 16.5312C15.6719 16.25 15.1823 15.8698 14.7969 15.3906C14.4219 14.901 14.2344 14.2656 14.2344 13.4844C14.2344 12.6823 14.4583 12 14.9062 11.4375C15.3542 10.8646 15.9427 10.4271 16.6719 10.125C17.401 9.82292 18.1823 9.67188 19.0156 9.67188C19.7552 9.67188 20.4896 9.81771 21.2188 10.1094C21.9479 10.401 22.5573 10.8073 23.0469 11.3281C23.5365 11.8385 23.7812 12.4271 23.7812 13.0938C23.7812 13.3646 23.6875 13.5677 23.5 13.7031C23.3229 13.8281 23.1354 13.8906 22.9375 13.8906C22.7292 13.8906 22.5521 13.8333 22.4062 13.7188C22.2604 13.6042 22.1458 13.4271 22.0625 13.1875C21.8542 12.5312 21.4896 12.0365 20.9688 11.7031C20.4479 11.3698 19.7969 11.2031 19.0156 11.2031C18.5365 11.2031 18.0625 11.2812 17.5938 11.4375C17.125 11.5938 16.7396 11.8281 16.4375 12.1406C16.1354 12.4531 15.9844 12.8594 15.9844 13.3594C15.9844 13.7865 16.099 14.1406 16.3281 14.4219C16.5573 14.7031 16.8594 14.9323 17.2344 15.1094C17.6198 15.276 18.0417 15.4115 18.5 15.5156L20 15.875C20.7083 16.0417 21.3646 16.2708 21.9688 16.5625C22.5833 16.8438 23.0781 17.2292 23.4531 17.7188C23.8281 18.2083 24.0156 18.8438 24.0156 19.625C24.0156 20.5208 23.7812 21.2604 23.3125 21.8438C22.8542 22.4167 22.2448 22.8438 21.4844 23.125C20.724 23.4062 19.901 23.5469 19.0156 23.5469ZM19 25.4062C18.8542 25.4062 18.7292 25.3542 18.625 25.25C18.5312 25.1458 18.4844 25.026 18.4844 24.8906V8.35938C18.4844 8.22396 18.5312 8.10417 18.625 8C18.7292 7.89583 18.8542 7.84375 19 7.84375C19.1458 7.84375 19.2656 7.89583 19.3594 8C19.4635 8.10417 19.5156 8.22396 19.5156 8.35938V24.8906C19.5156 25.026 19.4635 25.1458 19.3594 25.25C19.2656 25.3542 19.1458 25.4062 19 25.4062Z" fill="#8A3740"/>
</svg>
