<svg width="28" height="28" viewBox="0 0 28 28" fill="none" xmlns="http://www.w3.org/2000/svg">
<path d="M3.5 9.1875V17.866L3.72696 18.1041L8.34615 22.4548V26.6875H13.1923V22.1223C13.1955 22.0804 13.3102 19.7217 11.2232 18.4602C11.2175 18.4572 11.2296 18.4397 11.2232 18.4374C11.2175 18.4336 11.2046 18.4397 11.1989 18.4374C10.2418 17.8485 9.25481 17.3676 8.57392 16.8677C7.88577 16.3655 7.53846 15.9493 7.53846 15.2745H5.92308C5.92308 16.5048 6.68635 17.4384 7.5635 18.0805C8.44065 18.7227 9.45996 19.1952 10.3145 19.721H10.3403C11.6335 20.4849 11.5769 22.0987 11.5769 22.0987V25.1658H9.96154V21.8134L9.73458 21.5752L5.11538 17.2246V9.1875H3.5ZM22.8846 9.1875V17.2246L18.2654 21.5752L18.0385 21.8134V25.1658H16.4231V22.0743C16.4231 22.0743 16.3665 20.4841 17.6597 19.721H17.6855C18.5376 19.1952 19.5593 18.7212 20.4365 18.0798C21.3137 17.4391 22.0769 16.5048 22.0769 15.2745H20.4615C20.4615 15.9493 20.1142 16.3655 19.4269 16.8677C18.7452 17.3668 17.7582 17.8477 16.8019 18.4366C16.7954 18.4397 16.7825 18.4336 16.776 18.4366V18.461C14.7067 19.7088 14.8053 22.0424 14.8077 22.1223V26.6875H19.6538V22.4548L24.273 18.1041L24.5 17.866V9.1875H22.8846Z" fill="#3B3B3B"/>
<path d="M17.1844 3.35425C15.8492 3.35425 15.0102 4.01561 14.5307 4.59675C14.3048 4.87048 13.6952 4.87044 13.4694 4.59669C12.99 4.01557 12.1511 3.35425 10.8156 3.35425C8.43443 3.35425 7 5.61339 7 7.47518C7 9.91354 11.2751 13.351 13.1434 14.7367C13.6541 15.1156 14.3459 15.1157 14.8567 14.7369C16.725 13.3514 21 9.91485 21 7.47573C21 5.61339 19.5666 3.35425 17.1844 3.35425Z" stroke="#3B3B3B" stroke-width="1.25" stroke-linecap="round"/>
</svg>
