<svg width="22" height="26" viewBox="0 0 22 26" fill="none" xmlns="http://www.w3.org/2000/svg">
<path d="M18.5626 4.46879C18.0196 4.46818 17.4879 4.62427 17.0314 4.91832V3.81254C17.0314 3.11076 16.772 2.43373 16.303 1.91169C15.834 1.38966 15.1885 1.05949 14.4907 0.984706C13.7929 0.909919 13.0921 1.09579 12.5231 1.50657C11.9541 1.91735 11.5571 2.52402 11.4084 3.20989C10.9809 2.92005 10.4825 2.75212 9.96677 2.72412C9.45104 2.69612 8.93741 2.80911 8.48104 3.05096C8.02466 3.29281 7.64277 3.65438 7.37636 4.09687C7.10995 4.53936 6.96907 5.04605 6.96887 5.56254V13.3282L6.14527 12.0047C5.77005 11.3505 5.15029 10.872 4.42233 10.6747C3.69436 10.4774 2.91783 10.5773 2.26355 10.9525C1.60928 11.3278 1.13085 11.9475 0.933529 12.6755C0.736205 13.4034 0.836146 14.18 1.21137 14.8343C4.64574 22.0782 6.58715 25.0313 12.0001 25.0313C14.4939 25.0284 16.8848 24.0365 18.6481 22.2731C20.4115 20.5097 21.4035 18.1188 21.4064 15.625V7.31254C21.4064 6.9391 21.3328 6.56931 21.1899 6.22429C21.047 5.87927 20.8375 5.56577 20.5735 5.30171C20.3094 5.03764 19.9959 4.82817 19.6509 4.68526C19.3059 4.54235 18.9361 4.46879 18.5626 4.46879ZM20.0939 15.625C20.0913 17.7708 19.2377 19.828 17.7204 21.3453C16.2031 22.8626 14.1459 23.7162 12.0001 23.7188C9.70324 23.7188 8.22558 23.1664 6.88683 21.8102C5.41683 20.3282 4.0748 17.8125 2.38605 14.2502L2.3609 14.2032C2.15784 13.8514 2.10282 13.4335 2.20794 13.0412C2.31307 12.6489 2.56972 12.3144 2.92144 12.1114C3.27317 11.9083 3.69115 11.8533 4.08344 11.9584C4.47572 12.0635 4.81018 12.3202 5.01324 12.6719L5.02418 12.6905L7.0673 15.9718C7.14253 16.0931 7.25529 16.1867 7.38848 16.2382C7.52167 16.2897 7.66802 16.2963 7.80533 16.2571C7.94264 16.2179 8.06341 16.1349 8.14932 16.0209C8.23523 15.9068 8.28159 15.7678 8.28137 15.625V5.56254C8.28137 5.15643 8.44269 4.76695 8.72986 4.47978C9.01702 4.19262 9.4065 4.03129 9.81262 4.03129C10.2187 4.03129 10.6082 4.19262 10.8954 4.47978C11.1825 4.76695 11.3439 5.15643 11.3439 5.56254V12.125C11.3439 12.2991 11.413 12.466 11.5361 12.5891C11.6591 12.7122 11.8261 12.7813 12.0001 12.7813C12.1742 12.7813 12.3411 12.7122 12.4642 12.5891C12.5872 12.466 12.6564 12.2991 12.6564 12.125V3.81254C12.6564 3.40643 12.8177 3.01695 13.1049 2.72979C13.392 2.44262 13.7815 2.28129 14.1876 2.28129C14.5937 2.28129 14.9832 2.44262 15.2704 2.72979C15.5575 3.01695 15.7189 3.40643 15.7189 3.81254V12.125C15.7189 12.2991 15.788 12.466 15.9111 12.5891C16.0341 12.7122 16.2011 12.7813 16.3751 12.7813C16.5492 12.7813 16.7161 12.7122 16.8392 12.5891C16.9622 12.466 17.0314 12.2991 17.0314 12.125V7.31254C17.0314 6.90643 17.1927 6.51695 17.4799 6.22978C17.767 5.94262 18.1565 5.78129 18.5626 5.78129C18.9687 5.78129 19.3582 5.94262 19.6454 6.22978C19.9325 6.51695 20.0939 6.90643 20.0939 7.31254V15.625Z" fill="#3B3B3B"/>
</svg>
