<svg width="24" height="19" viewBox="0 0 24 19" fill="none" xmlns="http://www.w3.org/2000/svg">
<path d="M0.875 6.91187C0.875 5.3541 1.46753 3.65276 2.54688 2.33472C3.63473 1.0064 5.24121 0.0417817 7.25391 0.041748C9.50626 0.041748 10.9345 1.17281 11.7393 2.15308L11.7549 2.16577C11.7673 2.1741 11.7885 2.18521 11.8203 2.19702C11.8821 2.21996 11.9649 2.23608 12.0566 2.23608C12.1485 2.23606 12.2312 2.22 12.293 2.19702C12.3491 2.17613 12.3701 2.15603 12.373 2.15308L13.3398 2.94604C13.0055 3.35334 12.4727 3.48604 12.0566 3.48608C11.6926 3.48606 11.2389 3.3847 10.9072 3.08667L10.7734 2.94604C10.1323 2.16509 9.02954 1.29175 7.25391 1.29175C5.67603 1.29178 4.40507 2.03822 3.51367 3.12671C2.61372 4.22568 2.125 5.64837 2.125 6.91187C2.12513 7.66546 2.45951 8.56504 3.08203 9.56421C3.69827 10.5532 4.55927 11.581 5.52441 12.5769C7.45398 14.568 9.73934 16.3716 11.1377 17.4138L11.2432 17.4861C11.7784 17.8215 12.4603 17.7971 12.9746 17.4138L13.5381 16.989C14.9386 15.9185 16.8994 14.32 18.5879 12.5779C19.5531 11.5819 20.415 10.5543 21.0312 9.56519C21.6538 8.56589 21.9873 7.66584 21.9873 6.91187C21.9872 5.64789 21.4983 4.22559 20.5986 3.12671C19.7075 2.03843 18.437 1.29175 16.8584 1.29175C15.0835 1.29177 13.9812 2.16507 13.3398 2.94604L12.373 2.15308C13.1779 1.1729 14.6066 0.0417707 16.8584 0.041748C18.8721 0.041748 20.4786 1.00701 21.5664 2.33569C22.6454 3.65378 23.2372 5.35404 23.2373 6.91187C23.2373 8.00592 22.766 9.14411 22.0918 10.2263C21.4112 11.3187 20.484 12.4176 19.4854 13.448C17.7371 15.2518 15.722 16.8935 14.2949 17.9841L13.7217 18.4167C12.7919 19.1096 11.5498 19.1529 10.5811 18.5466L10.3906 18.4167C8.97147 17.3591 6.62506 15.5079 4.62695 13.446C3.62835 12.4156 2.70108 11.3167 2.02051 10.2244C1.34654 9.14251 0.87513 8.00537 0.875 6.91187Z" fill="#3B3B3B"/>
</svg>
