<svg width="17" height="12" viewBox="0 0 17 12" fill="none" xmlns="http://www.w3.org/2000/svg">
<path d="M2.13184 11.7158C1.47103 11.7158 0.969727 11.5472 0.62793 11.21C0.29069 10.8727 0.12207 10.376 0.12207 9.71973V2.16602C0.12207 1.50521 0.286133 1.00846 0.614258 0.675781C0.942383 0.338542 1.40495 0.169922 2.00195 0.169922H14.3682C15.029 0.169922 15.528 0.338542 15.8652 0.675781C16.207 1.00846 16.3779 1.50521 16.3779 2.16602V9.71973C16.3779 10.376 16.2139 10.8727 15.8857 11.21C15.5576 11.5472 15.0951 11.7158 14.498 11.7158H2.13184ZM2.11816 10.9092H14.3818C14.7646 10.9092 15.0586 10.8089 15.2637 10.6084C15.4733 10.4033 15.5781 10.1048 15.5781 9.71289V2.17285C15.5781 1.78548 15.4733 1.48926 15.2637 1.28418C15.0586 1.0791 14.7646 0.976562 14.3818 0.976562H2.11816C1.73535 0.976562 1.44141 1.0791 1.23633 1.28418C1.03125 1.48926 0.928711 1.7832 0.928711 2.16602V9.71289C0.928711 10.1048 1.03125 10.4033 1.23633 10.6084C1.44141 10.8089 1.73535 10.9092 2.11816 10.9092ZM8.24316 7.62109C8.04264 7.62109 7.8444 7.58236 7.64844 7.50488C7.45703 7.42285 7.2679 7.29753 7.08105 7.12891L0.621094 1.31836L1.1748 0.757812L7.55957 6.50684C7.78288 6.71191 8.01074 6.81445 8.24316 6.81445C8.48014 6.81445 8.71029 6.71191 8.93359 6.50684L15.3184 0.757812L15.8721 1.31836L9.41211 7.12891C9.22526 7.29753 9.03613 7.42285 8.84473 7.50488C8.65332 7.58236 8.4528 7.62109 8.24316 7.62109ZM1.27734 10.9707L0.723633 10.4102L5.7002 5.44043L6.25391 5.99414L1.27734 10.9707ZM15.2295 10.9775L10.2461 5.99414L10.8066 5.44043L15.7832 10.4102L15.2295 10.9775Z" fill="#3B3B3B"/>
</svg>
