<svg width="38" height="28" viewBox="0 0 38 28" fill="none" xmlns="http://www.w3.org/2000/svg">
<path d="M11.1689 12.2072H26.4554C26.9593 12.2072 27.2953 11.7009 27.1273 11.1947L25.4475 1.06965C25.4475 0.732154 24.9435 0.394653 24.6076 0.394653H12.8487C12.5128 0.394653 12.0088 0.732154 12.0088 1.06965L10.329 11.1947V11.3634C10.329 11.8697 10.665 12.2072 11.1689 12.2072ZM35.5265 16.2572C35.5265 15.9197 35.1905 15.5822 34.6866 15.5822H22.9277C22.5918 15.5822 22.0878 15.9197 22.0878 16.2572L20.408 26.3822V26.5509C20.408 27.0572 20.7439 27.3947 21.2479 27.3947H36.5344C37.0383 27.3947 37.3743 26.8884 37.2063 26.3822L35.5265 16.2572ZM22.2558 25.7072L23.5997 17.2697H34.0146L35.3585 25.7072H22.2558ZM14.5286 15.5822H2.76975C2.43378 15.5822 1.92983 15.9197 1.92983 16.2572L0.25 26.3822V26.5509C0.25 27.0572 0.585966 27.3947 1.08992 27.3947H16.3764C16.8803 27.3947 17.2163 26.8884 17.0483 26.3822L15.3685 16.2572C15.3685 15.9197 14.8645 15.5822 14.5286 15.5822Z" fill="white"/>
</svg>
