<svg width="38" height="28" viewBox="0 0 38 28" fill="none" xmlns="http://www.w3.org/2000/svg">
<path d="M11.6689 12.2072H26.9554C27.4593 12.2072 27.7953 11.7009 27.6273 11.1947L25.9475 1.06965C25.9475 0.732153 25.4435 0.394653 25.1076 0.394653H13.3487C13.0128 0.394653 12.5088 0.732153 12.5088 1.06965L10.829 11.1947V11.3634C10.829 11.8697 11.165 12.2072 11.6689 12.2072ZM14.0207 2.08215H24.4356L25.7795 10.5197H12.6768L14.0207 2.08215ZM36.0265 16.2572C36.0265 15.9197 35.6905 15.5822 35.1866 15.5822H23.4277C23.0918 15.5822 22.5878 15.9197 22.5878 16.2572L20.908 26.3822V26.5509C20.908 27.0572 21.2439 27.3947 21.7479 27.3947H37.0344C37.5383 27.3947 37.8743 26.8884 37.7063 26.3822L36.0265 16.2572ZM22.7558 25.7072L24.0997 17.2697H34.5146L35.8585 25.7072H22.7558ZM15.0286 15.5822H3.26975C2.93378 15.5822 2.42983 15.9197 2.42983 16.2572L0.75 26.3822V26.5509C0.75 27.0572 1.08597 27.3947 1.58992 27.3947H16.8764C17.3803 27.3947 17.7163 26.8884 17.5483 26.3822L15.8685 16.2572C15.8685 15.9197 15.3645 15.5822 15.0286 15.5822ZM2.59782 25.7072L3.94168 17.2697H14.3566L15.7005 25.7072H2.59782Z" fill="white"/>
</svg>
