<svg width="14" height="14" viewBox="0 0 14 14" fill="none" xmlns="http://www.w3.org/2000/svg">
<path d="M0.513672 11.4395V6.24219C0.513672 5.92969 0.607422 5.6875 0.794922 5.51562C0.982422 5.33984 1.24219 5.25195 1.57422 5.25195H2.93945V2.24023C2.93945 1.67383 3.08398 1.24805 3.37305 0.962891C3.66211 0.673828 4.0918 0.529297 4.66211 0.529297H11.7637C12.334 0.529297 12.7637 0.673828 13.0527 0.962891C13.3418 1.24805 13.4863 1.67383 13.4863 2.24023V11.3105C13.4863 11.877 13.3418 12.3027 13.0527 12.5879C12.7637 12.873 12.334 13.0156 11.7637 13.0156H2.08984C1.5625 13.0156 1.16797 12.8809 0.90625 12.6113C0.644531 12.3418 0.513672 11.9512 0.513672 11.4395ZM1.23438 11.4336C1.23438 11.6836 1.31445 11.8887 1.47461 12.0488C1.63867 12.2129 1.84375 12.2949 2.08984 12.2949C2.33203 12.2949 2.5332 12.2148 2.69336 12.0547C2.85742 11.8945 2.93945 11.6875 2.93945 11.4336V5.97852H1.63867C1.51367 5.97852 1.41406 6.01367 1.33984 6.08398C1.26953 6.15039 1.23438 6.24414 1.23438 6.36523V11.4336ZM3.41406 12.2949H11.7461C12.0781 12.2949 12.3301 12.209 12.502 12.0371C12.6777 11.8652 12.7656 11.6094 12.7656 11.2695V2.28125C12.7656 1.94141 12.6777 1.68555 12.502 1.51367C12.3301 1.33789 12.0781 1.25 11.7461 1.25H4.67969C4.35156 1.25 4.09961 1.33789 3.92383 1.51367C3.74805 1.68555 3.66016 1.94141 3.66016 2.28125V11.4043C3.66016 11.7559 3.57812 12.0527 3.41406 12.2949ZM5.27734 3.875C5.19141 3.875 5.11914 3.84766 5.06055 3.79297C5.00586 3.73438 4.97852 3.66406 4.97852 3.58203C4.97852 3.50391 5.00586 3.4375 5.06055 3.38281C5.11914 3.32812 5.19141 3.30078 5.27734 3.30078H11.1602C11.2422 3.30078 11.3105 3.32812 11.3652 3.38281C11.4238 3.4375 11.4531 3.50391 11.4531 3.58203C11.4531 3.66406 11.4238 3.73438 11.3652 3.79297C11.3105 3.84766 11.2422 3.875 11.1602 3.875H5.27734ZM5.27734 5.97852C5.19141 5.97852 5.11914 5.95117 5.06055 5.89648C5.00586 5.8418 4.97852 5.77344 4.97852 5.69141C4.97852 5.60938 5.00586 5.54102 5.06055 5.48633C5.11914 5.43164 5.19141 5.4043 5.27734 5.4043H11.1602C11.2422 5.4043 11.3105 5.43164 11.3652 5.48633C11.4238 5.54102 11.4531 5.60938 11.4531 5.69141C11.4531 5.77344 11.4238 5.8418 11.3652 5.89648C11.3105 5.95117 11.2422 5.97852 11.1602 5.97852H5.27734ZM5.65234 10.209C5.4375 10.209 5.26953 10.1484 5.14844 10.0273C5.02734 9.90625 4.9668 9.74023 4.9668 9.5293V8.1875C4.9668 7.97656 5.02734 7.81055 5.14844 7.68945C5.26953 7.56445 5.4375 7.50195 5.65234 7.50195H7.17578C7.38672 7.50195 7.55273 7.56445 7.67383 7.68945C7.79492 7.81055 7.85547 7.97656 7.85547 8.1875V9.5293C7.85547 9.74023 7.79492 9.90625 7.67383 10.0273C7.55273 10.1484 7.38672 10.209 7.17578 10.209H5.65234ZM8.93359 8.07617C8.84766 8.07617 8.77734 8.04883 8.72266 7.99414C8.66797 7.93945 8.64062 7.87305 8.64062 7.79492C8.64062 7.71289 8.66797 7.64453 8.72266 7.58984C8.77734 7.53125 8.84766 7.50195 8.93359 7.50195H11.1543C11.2402 7.50195 11.3105 7.53125 11.3652 7.58984C11.4199 7.64453 11.4473 7.71289 11.4473 7.79492C11.4473 7.87305 11.4199 7.93945 11.3652 7.99414C11.3105 8.04883 11.2402 8.07617 11.1543 8.07617H8.93359ZM8.93359 10.209C8.84766 10.209 8.77734 10.1816 8.72266 10.127C8.66797 10.0723 8.64062 10.0059 8.64062 9.92773C8.64062 9.8418 8.66797 9.77148 8.72266 9.7168C8.77734 9.66211 8.84766 9.63477 8.93359 9.63477H11.1543C11.2402 9.63477 11.3105 9.66211 11.3652 9.7168C11.4199 9.77148 11.4473 9.8418 11.4473 9.92773C11.4473 10.0059 11.4199 10.0723 11.3652 10.127C11.3105 10.1816 11.2402 10.209 11.1543 10.209H8.93359Z" fill="#3B3B3B"/>
</svg>
