<svg width="14" height="14" viewBox="0 0 14 14" fill="none" xmlns="http://www.w3.org/2000/svg">
<path d="M10.4287 13.1562C9.78613 13.1562 9.10938 13.0218 8.39844 12.7529C7.69206 12.484 6.97428 12.1012 6.24512 11.6045C5.52051 11.1077 4.81185 10.513 4.11914 9.82031C3.42188 9.12305 2.82487 8.40983 2.32812 7.68066C1.83138 6.9515 1.44857 6.23145 1.17969 5.52051C0.915365 4.80957 0.783203 4.13281 0.783203 3.49023C0.783203 3.13477 0.819661 2.80664 0.892578 2.50586C0.965495 2.20508 1.07715 1.92708 1.22754 1.67188C1.38249 1.41667 1.58073 1.17741 1.82227 0.954102C1.84505 0.931315 1.86784 0.910807 1.89062 0.892578C1.91341 0.869792 1.93392 0.849284 1.95215 0.831055C2.39421 0.420898 2.82259 0.220378 3.2373 0.229492C3.4515 0.229492 3.66113 0.291016 3.86621 0.414062C4.07585 0.537109 4.26953 0.730794 4.44727 0.995117L5.78711 2.93652C5.9375 3.15527 6.00586 3.38542 5.99219 3.62695C5.97852 3.86849 5.9056 4.09408 5.77344 4.30371L5.14453 5.29492C5.03516 5.4681 5.02604 5.639 5.11719 5.80762C5.22201 5.98991 5.38835 6.22689 5.61621 6.51855C5.84863 6.80566 6.11751 7.10417 6.42285 7.41406C6.62793 7.61458 6.83301 7.80599 7.03809 7.98828C7.24316 8.16602 7.43229 8.32324 7.60547 8.45996C7.7832 8.59212 7.9222 8.6901 8.02246 8.75391C8.13639 8.82227 8.24349 8.85872 8.34375 8.86328C8.44857 8.86328 8.55794 8.83594 8.67188 8.78125L9.74512 8.26172C10.0459 8.11589 10.3148 8.05208 10.5518 8.07031C10.7887 8.08398 11.028 8.17285 11.2695 8.33691L12.9443 9.48535C13.2087 9.66309 13.4023 9.85677 13.5254 10.0664C13.6484 10.2715 13.71 10.4834 13.71 10.7021C13.71 10.9072 13.6598 11.1169 13.5596 11.3311C13.4639 11.5452 13.3135 11.7617 13.1084 11.9805C13.0856 12.0033 13.0651 12.0238 13.0469 12.042C13.0286 12.0648 13.0104 12.0876 12.9922 12.1104C12.6458 12.4795 12.2676 12.7461 11.8574 12.9102C11.4473 13.0742 10.971 13.1562 10.4287 13.1562ZM10.4287 12.3564C10.8161 12.3473 11.1761 12.2767 11.5088 12.1445C11.8415 12.0124 12.1377 11.8073 12.3975 11.5293C12.4111 11.5111 12.4225 11.4951 12.4316 11.4814C12.4453 11.4678 12.4613 11.4518 12.4795 11.4336C12.7119 11.1829 12.8281 10.9391 12.8281 10.7021C12.8281 10.5882 12.8031 10.4857 12.7529 10.3945C12.7028 10.3034 12.623 10.2214 12.5137 10.1484L10.9141 9.06836C10.7865 8.98633 10.6611 8.93848 10.5381 8.9248C10.415 8.91113 10.2783 8.93848 10.1279 9.00684L8.95898 9.56738C8.70378 9.69043 8.47819 9.74284 8.28223 9.72461C8.08626 9.70638 7.89714 9.63346 7.71484 9.50586C7.56445 9.4056 7.38444 9.27572 7.1748 9.11621C6.96973 8.95215 6.75326 8.76986 6.52539 8.56934C6.29753 8.36882 6.08105 8.16602 5.87598 7.96094C5.56608 7.64648 5.27669 7.32292 5.00781 6.99023C4.74349 6.65299 4.5293 6.36589 4.36523 6.12891C4.24219 5.94661 4.17383 5.7666 4.16016 5.58887C4.14648 5.41113 4.20345 5.22201 4.33105 5.02148L5.02148 3.92773C5.16276 3.69076 5.17188 3.48112 5.04883 3.29883L3.79102 1.42578C3.64974 1.21615 3.46745 1.11133 3.24414 1.11133C3.13021 1.11133 3.00944 1.14095 2.88184 1.2002C2.75879 1.25488 2.63346 1.34147 2.50586 1.45996C2.49219 1.47363 2.47624 1.4873 2.45801 1.50098C2.44434 1.51465 2.42839 1.52832 2.41016 1.54199C2.13216 1.80176 1.9248 2.0957 1.78809 2.42383C1.65592 2.75195 1.58757 3.10514 1.58301 3.4834C1.57389 4.06673 1.70605 4.69108 1.97949 5.35645C2.25293 6.02181 2.62663 6.69173 3.10059 7.36621C3.5791 8.03613 4.11914 8.67188 4.7207 9.27344C5.31771 9.87044 5.94661 10.4014 6.60742 10.8662C7.26823 11.3311 7.92448 11.6956 8.57617 11.96C9.23242 12.2288 9.84993 12.361 10.4287 12.3564Z" fill="#3B3B3B"/>
</svg>
