<svg width="24" height="24" viewBox="0 0 24 24" fill="none" xmlns="http://www.w3.org/2000/svg">
<path d="M6.64844 19.9531C6.48698 19.8333 6.38802 19.6719 6.35156 19.4688C6.32031 19.2656 6.35417 19.0234 6.45312 18.7422L8.08594 13.8828L3.91406 10.8828C3.66927 10.7109 3.5 10.5339 3.40625 10.3516C3.3125 10.1693 3.29688 9.98177 3.35938 9.78906C3.42188 9.60156 3.54427 9.46354 3.72656 9.375C3.90885 9.28125 4.15104 9.23438 4.45312 9.23438H9.57031L11.125 4.38281C11.2188 4.09635 11.3359 3.88021 11.4766 3.73438C11.6224 3.58854 11.7943 3.51562 11.9922 3.51562C12.1953 3.51562 12.3672 3.58854 12.5078 3.73438C12.6536 3.88021 12.7734 4.09635 12.8672 4.38281L14.4219 9.23438H19.5391C19.8411 9.23438 20.0833 9.28125 20.2656 9.375C20.4479 9.46354 20.5703 9.60156 20.6328 9.78906C20.6953 9.98177 20.6797 10.1693 20.5859 10.3516C20.4922 10.5339 20.3229 10.7109 20.0781 10.8828L15.9062 13.8828L17.5391 18.7422C17.638 19.0234 17.6693 19.2656 17.6328 19.4688C17.6016 19.6719 17.5052 19.8333 17.3438 19.9531C17.1823 20.0781 17 20.1198 16.7969 20.0781C16.5938 20.0417 16.3724 19.9375 16.1328 19.7656L11.9922 16.7266L7.85938 19.7656C7.61979 19.9375 7.39844 20.0417 7.19531 20.0781C6.99219 20.1198 6.8099 20.0781 6.64844 19.9531Z" fill="#8A3740"/>
</svg>
