<svg width="15" height="15" viewBox="0 0 15 15" fill="none" xmlns="http://www.w3.org/2000/svg">
<path d="M3.53125 8.10938C3.42188 8.10938 3.33073 8.07292 3.25781 8C3.18945 7.92708 3.15527 7.83822 3.15527 7.7334C3.15527 7.63314 3.18945 7.54655 3.25781 7.47363C3.33073 7.40072 3.42188 7.36426 3.53125 7.36426H6.87402V2.94141C6.87402 2.83659 6.91048 2.75 6.9834 2.68164C7.05632 2.60872 7.1429 2.57227 7.24316 2.57227C7.35254 2.57227 7.44141 2.60872 7.50977 2.68164C7.58268 2.75 7.61914 2.83659 7.61914 2.94141V7.7334C7.61914 7.83822 7.58268 7.92708 7.50977 8C7.44141 8.07292 7.35254 8.10938 7.24316 8.10938H3.53125ZM7.25 14.2959C6.30208 14.2959 5.41341 14.1182 4.58398 13.7627C3.75456 13.4072 3.02539 12.915 2.39648 12.2861C1.77214 11.6572 1.28223 10.9303 0.926758 10.1055C0.571289 9.27604 0.393555 8.38737 0.393555 7.43945C0.393555 6.49154 0.571289 5.60514 0.926758 4.78027C1.28223 3.95085 1.77214 3.22168 2.39648 2.59277C3.02539 1.95931 3.75456 1.46712 4.58398 1.11621C5.41341 0.760742 6.30208 0.583008 7.25 0.583008C8.19336 0.583008 9.07975 0.760742 9.90918 1.11621C10.7386 1.46712 11.4655 1.95931 12.0898 2.59277C12.7188 3.22168 13.2109 3.95085 13.5664 4.78027C13.9264 5.60514 14.1064 6.49154 14.1064 7.43945C14.1064 8.38737 13.9264 9.27604 13.5664 10.1055C13.2109 10.9303 12.7188 11.6572 12.0898 12.2861C11.4655 12.915 10.7386 13.4072 9.90918 13.7627C9.07975 14.1182 8.19336 14.2959 7.25 14.2959ZM7.25 13.4141C8.07487 13.4141 8.84733 13.2591 9.56738 12.9492C10.292 12.6393 10.9277 12.2109 11.4746 11.6641C12.0215 11.1172 12.4499 10.4837 12.7598 9.76367C13.0697 9.03906 13.2246 8.26432 13.2246 7.43945C13.2246 6.61458 13.0697 5.83984 12.7598 5.11523C12.4499 4.39062 12.0215 3.75716 11.4746 3.21484C10.9277 2.66797 10.292 2.23958 9.56738 1.92969C8.84733 1.61979 8.07487 1.46484 7.25 1.46484C6.42513 1.46484 5.65039 1.61979 4.92578 1.92969C4.20573 2.23958 3.57227 2.66797 3.02539 3.21484C2.47852 3.75716 2.05013 4.39062 1.74023 5.11523C1.43034 5.83984 1.27539 6.61458 1.27539 7.43945C1.27539 8.26432 1.43034 9.03906 1.74023 9.76367C2.05013 10.4837 2.47852 11.1172 3.02539 11.6641C3.57227 12.2109 4.20573 12.6393 4.92578 12.9492C5.65039 13.2591 6.42513 13.4141 7.25 13.4141Z" fill="#3B3B3B"/>
</svg>
