<svg width="237" height="33" viewBox="0 0 237 33" fill="none" xmlns="http://www.w3.org/2000/svg">
<path fill-rule="evenodd" clip-rule="evenodd" d="M15.7663 0.424325L30.2372 14.8952L12.7766 32.3558H12.447C11.9459 32.3558 11.6045 32.2897 11.4228 32.1576C11.2411 32.0254 11.1282 31.8217 11.0841 31.5463C11.0456 31.271 11.0263 30.6956 11.0263 29.8201V21.9423H12.8269L12.85 21.9423H16.604C17.5346 21.9423 18.2559 21.9147 18.7681 21.8597C19.2802 21.7991 19.8198 21.6532 20.387 21.4219C20.9596 21.1851 21.4607 20.8437 21.8902 20.3977C22.3252 19.9462 22.6666 19.3817 22.9144 18.7045C23.1622 18.0216 23.2861 17.27 23.2861 16.4495C23.2861 15.3152 23.0576 14.3158 22.6006 13.4513C22.149 12.5812 21.458 11.8929 20.5274 11.3863C19.5968 10.8797 18.3 10.6264 16.637 10.6264C16.1189 10.6264 15.129 10.6627 13.6676 10.7353C13.6035 10.7108 13.5492 10.6824 13.5046 10.65C13.3284 10.5178 13.2183 10.3168 13.1743 10.047C13.1302 9.7717 13.1082 9.19352 13.1082 8.31248V2.81976C13.1082 1.88917 13.1357 1.29997 13.1908 1.05218C13.2513 0.80439 13.367 0.636442 13.5377 0.548339C13.65 0.486722 13.8447 0.445384 14.1217 0.424325L15.7663 0.424325ZM30.5366 15.1946L30.5362 15.1942L12.992 32.7384L12.9893 32.7357H7.40856V32.3558H7.98674C8.4658 32.3558 8.79619 32.2952 8.97791 32.1741C9.16513 32.0529 9.28352 31.8657 9.33307 31.6124C9.38814 31.3536 9.41567 30.7562 9.41567 29.8201V21.9155H7.75547C7.03412 21.9155 6.54955 21.9513 6.30176 22.0229C6.05396 22.089 5.81994 22.2954 5.59968 22.6424C5.38493 22.9893 5.21973 23.5179 5.1041 24.2282H4.72415L4.78197 21.5356H12.5883C12.8132 21.5069 12.9816 21.4553 13.0936 21.3806C13.2808 21.2595 13.3992 21.0722 13.4488 20.8189C13.5039 20.5601 13.5314 19.9627 13.5314 19.0266V13.6247C13.5314 12.7327 13.5039 12.1572 13.4488 11.8984C13.3992 11.6341 13.2891 11.4552 13.1184 11.3616C13.0062 11.2942 12.8012 11.2498 12.5034 11.2282H9.6804V10.8482H10.0769C10.5504 10.8482 10.8781 10.7876 11.0598 10.6665C11.247 10.5454 11.3654 10.3581 11.4149 10.1048C11.47 9.84603 11.4975 9.24858 11.4975 8.31248V1.18434L7.06206 11.2282H6.67386L2.20535 1.18434V7.74256C2.20535 8.64011 2.23288 9.25133 2.28794 9.57622C2.34301 9.9011 2.51371 10.1874 2.80005 10.4352C3.08638 10.6775 3.48836 10.8152 4.00597 10.8482V11.2282H0V10.8482C0.479064 10.8207 0.867271 10.6913 1.16462 10.46C1.46748 10.2232 1.65194 9.93414 1.71802 9.59274C1.7841 9.25133 1.81714 8.61809 1.81714 7.693V2.81976C1.81714 1.92771 1.78961 1.35229 1.73454 1.09348C1.68498 0.834676 1.57485 0.655715 1.40415 0.556598C1.29383 0.490404 1.09386 0.446313 0.804247 0.424326L0 0.424326V0.407923V0.0279761V0.00142822L15.9386 0.00142683L15.9401 0L30.8357 14.8956L30.5366 15.1946ZM3.58683 0.424326L11.4221 0.424325L7.51635 9.29539L3.58683 0.424326ZM15.142 11.0642V18.5475C15.142 19.6543 15.1613 20.3674 15.1999 20.6868C15.2439 21.0062 15.3678 21.2319 15.5715 21.3641C15.7808 21.4907 16.2186 21.5541 16.8848 21.5541C17.8595 21.5541 18.6607 21.4219 19.2884 21.1576C19.9162 20.8878 20.4393 20.3619 20.8578 19.58C21.2818 18.7926 21.4938 17.7904 21.4938 16.5734C21.4938 15.6263 21.3699 14.7811 21.1221 14.0377C20.8798 13.2943 20.5301 12.6914 20.0731 12.2288C19.6161 11.7608 19.1095 11.4442 18.5533 11.279C17.9971 11.1083 17.2841 11.0229 16.414 11.0229C15.9955 11.0229 15.5715 11.0367 15.142 11.0642ZM164.017 17.9069V24.2732H164.747C164.902 23.4458 165.141 22.8033 165.462 22.3458C166.913 24.0104 168.723 24.8427 170.894 24.8427C172.782 24.8427 174.291 24.3121 175.42 23.2511C176.55 22.1901 177.114 20.8126 177.114 19.1189C177.114 18.0481 176.88 17.1039 176.413 16.2862C175.946 15.4685 175.323 14.8309 174.544 14.3734C173.775 13.9061 172.539 13.2929 170.835 12.5336C169.054 11.7354 167.823 11.015 167.141 10.3726C166.45 9.73984 166.105 8.96596 166.105 8.05093C166.105 7.29165 166.377 6.59565 166.922 5.96291C167.477 5.32045 168.343 4.99922 169.521 4.99922C170.758 4.99922 171.843 5.43239 172.777 6.29875C173.722 7.1651 174.379 8.35269 174.749 9.86152H175.391V4.67798H174.749C174.69 5.30098 174.437 5.88017 173.989 6.41556C173.211 5.55894 172.451 4.99435 171.712 4.72179C170.972 4.44922 170.183 4.31294 169.346 4.31294C167.847 4.31294 166.606 4.78506 165.623 5.72929C164.649 6.66379 164.163 7.83677 164.163 9.24825C164.163 10.173 164.386 11.0442 164.834 11.8619C165.292 12.6796 165.924 13.3464 166.732 13.8623C167.54 14.3685 168.738 14.9623 170.324 15.6437C172.106 16.403 173.332 17.1136 174.004 17.7755C174.676 18.4472 175.011 19.2795 175.011 20.2724C175.011 21.2556 174.627 22.1462 173.858 22.9445C173.099 23.7329 172.023 24.1272 170.631 24.1272C167.536 24.1272 165.574 22.0538 164.747 17.9069H164.017ZM213.237 16.0233H204.695V16.7242H205.162C205.941 16.7242 206.476 16.7875 206.768 16.914C207.06 17.0309 207.274 17.2693 207.411 17.6295C207.557 17.9799 207.63 18.6857 207.63 19.7467C207.63 20.652 207.479 21.4016 207.177 21.9954C206.875 22.5892 206.311 23.0953 205.483 23.5139C204.656 23.9228 203.736 24.1272 202.724 24.1272C200.748 24.1272 199.093 23.3971 197.759 21.937C196.426 20.4671 195.759 17.9751 195.759 14.461C195.759 10.9372 196.45 8.48411 197.832 7.10183C199.214 5.71956 200.835 5.02842 202.694 5.02842C204.495 5.02842 206.024 5.62221 207.279 6.8098C208.545 7.99739 209.319 9.60842 209.601 11.6429H210.302V5.02842H209.601C209.513 5.8169 209.309 6.55184 208.988 7.23324C207.255 5.28638 205.065 4.31294 202.417 4.31294C199.341 4.31294 196.907 5.37885 195.116 7.51067C193.325 9.64249 192.43 12.1247 192.43 14.9574C192.43 17.8193 193.369 20.1848 195.248 22.0538C197.126 23.913 199.482 24.8427 202.315 24.8427C203.726 24.8427 205.259 24.5312 206.914 23.9082C208.131 23.4506 209.114 23.2219 209.864 23.2219C210.049 23.2219 210.258 23.2414 210.492 23.2803V21.1777C210.492 19.4742 210.545 18.4034 210.652 17.9653C210.759 17.5176 210.978 17.2012 211.309 17.0163C211.65 16.8216 212.292 16.7242 213.237 16.7242V16.0233ZM219.274 6.37176L233.277 24.9303H233.904V8.54738C233.904 7.70049 233.968 7.10183 234.094 6.7514C234.231 6.39123 234.537 6.08459 235.014 5.8315C235.501 5.57841 236.163 5.41779 237 5.34965V4.67798H229.816V5.34965C230.595 5.34965 231.262 5.45186 231.816 5.65628C232.371 5.8607 232.736 6.13813 232.912 6.48857C233.096 6.83901 233.189 7.45227 233.189 8.32836V20.1702L221.464 4.67798H215.623V5.34965C216.684 5.34965 217.366 5.42266 217.668 5.56867C217.979 5.71469 218.203 6.04566 218.339 6.56158C218.485 7.0775 218.558 8.09473 218.558 9.61329V20.1118C218.558 21.3091 218.51 22.0684 218.412 22.3896C218.325 22.7108 218.033 23.0126 217.536 23.2949C217.04 23.5675 216.319 23.7378 215.375 23.806V24.4776H222.764V23.806C221.712 23.806 220.924 23.6551 220.398 23.3533C219.872 23.0515 219.551 22.7206 219.434 22.3604C219.327 22.0002 219.274 21.2507 219.274 20.1118V6.37176ZM180.172 5.34965V4.67798H189.225V5.34965H188.802C187.828 5.34965 187.191 5.43239 186.889 5.59788C186.587 5.75363 186.383 6.05052 186.276 6.48857C186.178 6.92661 186.13 7.96819 186.13 9.61329V19.3233C186.13 20.8808 186.164 21.9029 186.232 22.3896C186.31 22.8666 186.505 23.2219 186.816 23.4555C187.137 23.6891 187.746 23.806 188.641 23.806H189.225V24.4776H180.172V23.806H180.756C181.603 23.806 182.187 23.6989 182.509 23.4847C182.84 23.2706 183.049 22.9396 183.136 22.4918C183.224 22.0343 183.268 20.9781 183.268 19.3233V9.61329C183.268 8.03633 183.224 7.01909 183.136 6.56158C183.049 6.10406 182.854 5.7877 182.552 5.61248C182.251 5.43726 181.598 5.34965 180.596 5.34965H180.172ZM159.776 18.3158H160.477L160.053 24.4776H143.656V23.806H144.065C145.048 23.806 145.681 23.6745 145.963 23.4117C146.255 23.1489 146.44 22.8179 146.518 22.4188C146.596 22.01 146.635 20.9781 146.635 19.3233V9.61329C146.635 8.10447 146.591 7.11157 146.503 6.63458C146.425 6.1576 146.235 5.82663 145.934 5.64168C145.642 5.447 145.019 5.34965 144.065 5.34965V4.67798H158.214L158.681 9.61329H157.995C157.683 8.23102 157.299 7.25271 156.841 6.67839C156.393 6.09433 155.858 5.72929 155.235 5.58328C154.612 5.42753 153.609 5.34965 152.227 5.34965H149.482V13.6579H151.585C152.548 13.6579 153.22 13.5752 153.6 13.4097C153.989 13.2442 154.242 12.996 154.359 12.665C154.485 12.3243 154.549 11.6672 154.549 10.6938H155.235V17.4689H154.549C154.549 16.3689 154.456 15.634 154.271 15.2641C154.086 14.8844 153.814 14.6411 153.453 14.534C153.103 14.4172 152.504 14.3588 151.658 14.3588H149.482V19.0459C149.482 21.3918 149.633 22.7741 149.935 23.1927C150.236 23.6015 151.049 23.806 152.373 23.806H153.848C154.889 23.806 155.746 23.6745 156.418 23.4117C157.089 23.1391 157.727 22.5892 158.33 21.7617C158.944 20.9246 159.426 19.7759 159.776 18.3158ZM124.513 4.67798L121.257 4.8386V5.51027H121.841C122.843 5.51027 123.491 5.59788 123.783 5.7731C124.085 5.93858 124.279 6.25495 124.367 6.72219C124.464 7.17971 124.513 8.19695 124.513 9.77391V19.3233C124.513 20.9781 124.464 22.0343 124.367 22.4918C124.279 22.9396 124.07 23.2706 123.739 23.4847C123.418 23.6989 122.834 23.806 121.987 23.806H121.169V24.4776H129.945C131.59 24.4776 132.865 24.4289 133.77 24.3316C134.676 24.2245 135.63 23.9666 136.632 23.5577C137.645 23.1392 138.53 22.5356 139.29 21.7471C140.059 20.9489 140.662 19.9512 141.1 18.7538C141.538 17.5468 141.757 16.218 141.757 14.7676C141.757 12.7623 141.353 10.9956 140.545 9.46728C139.747 7.92925 138.525 6.71246 136.88 5.8169C135.235 4.92134 132.943 4.47356 130.003 4.47356C129.059 4.47356 127.229 4.5417 124.513 4.67798ZM127.36 18.4764V5.24744C128.12 5.19877 128.869 5.17444 129.609 5.17444C131.147 5.17444 132.407 5.32532 133.391 5.62708C134.374 5.91911 135.269 6.47884 136.077 7.30625C136.885 8.12394 137.503 9.18985 137.932 10.504C138.37 11.8181 138.589 13.3123 138.589 14.9866C138.589 17.1379 138.214 18.9096 137.464 20.3016C136.725 21.6839 135.8 22.6135 134.69 23.0905C133.58 23.5577 132.164 23.7914 130.441 23.7914C129.263 23.7914 128.489 23.6794 128.12 23.4555C127.759 23.2219 127.54 22.8228 127.462 22.2582C127.394 21.6936 127.36 20.433 127.36 18.4764ZM88.8458 9.43807H88.1741L88.2763 4.67798H107.492L107.594 9.43807H106.966C106.742 8.13367 106.436 7.19431 106.046 6.61998C105.657 6.03592 105.238 5.68062 104.791 5.55407C104.343 5.41779 103.579 5.34965 102.498 5.34965H99.3151V19.3233C99.3151 20.871 99.3491 21.8883 99.4173 22.375C99.4952 22.8617 99.6947 23.2219 100.016 23.4555C100.337 23.6891 100.941 23.806 101.827 23.806H102.79V24.4776H92.9196V23.806H93.9417C94.7886 23.806 95.3727 23.6989 95.6939 23.4847C96.0249 23.2706 96.2342 22.9396 96.3218 22.4918C96.4191 22.0343 96.4678 20.9781 96.4678 19.3233V5.34965H93.5329C92.2577 5.34965 91.4011 5.41293 90.963 5.53947C90.525 5.65628 90.1113 6.02132 89.7219 6.63458C89.3422 7.24785 89.0502 8.18234 88.8458 9.43807ZM69.2206 4.67798L65.9645 4.8386V5.51027H66.5486C67.5512 5.51027 68.1985 5.59788 68.4906 5.7731C68.7923 5.93858 68.987 6.25495 69.0746 6.72219C69.172 7.17971 69.2206 8.19695 69.2206 9.77391V19.3233C69.2206 20.9781 69.172 22.0343 69.0746 22.4918C68.987 22.9396 68.7777 23.2706 68.4468 23.4847C68.1255 23.6989 67.5415 23.806 66.6946 23.806H65.8769V24.4776H74.6524C76.2975 24.4776 77.5727 24.4289 78.478 24.3316C79.3833 24.2245 80.3373 23.9666 81.3399 23.5577C82.3523 23.1392 83.2381 22.5356 83.9974 21.7471C84.7664 20.9489 85.3699 19.9512 85.808 18.7538C86.246 17.5468 86.465 16.218 86.465 14.7676C86.465 12.7623 86.0611 10.9956 85.2531 9.46728C84.4549 7.92925 83.2332 6.71246 81.5881 5.8169C79.943 4.92134 77.6506 4.47356 74.7108 4.47356C73.7666 4.47356 71.9365 4.5417 69.2206 4.67798ZM72.0679 18.4764V5.24744C72.8272 5.19877 73.5768 5.17444 74.3166 5.17444C75.8546 5.17444 77.1152 5.32532 78.0984 5.62708C79.0815 5.91911 79.9771 6.47884 80.785 7.30625C81.593 8.12394 82.2111 9.18985 82.6394 10.504C83.0775 11.8181 83.2965 13.3123 83.2965 14.9866C83.2965 17.1379 82.9217 18.9096 82.1722 20.3016C81.4324 21.6839 80.5076 22.6135 79.3979 23.0905C78.2882 23.5577 76.8718 23.7914 75.1489 23.7914C73.971 23.7914 73.1971 23.6794 72.8272 23.4555C72.4671 23.2219 72.248 22.8228 72.1702 22.2582C72.102 21.6936 72.0679 20.433 72.0679 18.4764ZM50.4954 21.0609L57.7085 4.67798H63.7827V5.34965H63.0527C62.0792 5.34965 61.4416 5.43239 61.1399 5.59788C60.8381 5.75363 60.6337 6.05052 60.5266 6.48857C60.4293 6.92661 60.3806 7.96819 60.3806 9.61329V19.3233C60.3806 20.8808 60.4195 21.9029 60.4974 22.3896C60.5753 22.8666 60.77 23.2219 61.0815 23.4555C61.4027 23.6891 62.0111 23.806 62.9067 23.806H63.7827V24.4776H54.321V23.806H55.0218C55.859 23.806 56.4382 23.6989 56.7594 23.4847C57.0904 23.2706 57.2997 22.9396 57.3873 22.4918C57.4846 22.0343 57.5333 20.9781 57.5333 19.3233V6.72219L49.6923 24.4776H49.006L41.1066 6.72219V18.3158C41.1066 19.9025 41.1553 20.983 41.2526 21.5573C41.35 22.1316 41.6517 22.6378 42.1579 23.0759C42.6641 23.5042 43.3747 23.7475 44.2897 23.806V24.4776H37.208V23.806C38.0549 23.7573 38.7412 23.5285 39.2668 23.1197C39.8022 22.7011 40.1283 22.1901 40.2451 21.5865C40.3619 20.983 40.4203 19.8635 40.4203 18.2282V9.61329C40.4203 8.03633 40.3717 7.01909 40.2743 6.56158C40.1867 6.10406 39.992 5.7877 39.6903 5.61248C39.3982 5.43726 38.7509 5.34965 37.7483 5.34965H37.208V4.67798H43.2384L50.4954 21.0609Z" fill="#3B3B3B"/>
</svg>
