<svg width="32" height="28" viewBox="0 0 32 28" fill="none" xmlns="http://www.w3.org/2000/svg">
<path d="M16.4727 9.63574C17.0957 9.75033 17.6257 9.9222 18.0625 10.1514C18.5065 10.3805 18.8861 10.6562 19.2012 10.9785C20.0892 11.8594 20.68 12.8333 20.9736 13.9004C21.2673 14.9674 21.2637 16.0345 20.9629 17.1016C20.6693 18.1615 20.0856 19.1318 19.2119 20.0127L15.4736 23.751C14.5999 24.6247 13.6296 25.2083 12.5625 25.502C11.5026 25.8027 10.4391 25.8063 9.37207 25.5127C8.30501 25.2191 7.32389 24.6247 6.42871 23.7295C5.54785 22.8486 4.95703 21.8747 4.65625 20.8076C4.36263 19.7406 4.36263 18.6771 4.65625 17.6172C4.95703 16.5501 5.54427 15.5762 6.41797 14.6953L9.51172 11.623C9.41146 12.0456 9.38639 12.486 9.43652 12.9443C9.48665 13.3955 9.59766 13.8145 9.76953 14.2012L7.93262 16.0381C7.33105 16.6396 6.93001 17.3057 6.72949 18.0361C6.52897 18.7666 6.52897 19.4971 6.72949 20.2275C6.93001 20.958 7.33464 21.6276 7.94336 22.2363C8.54492 22.8451 9.21094 23.2461 9.94141 23.4395C10.6719 23.64 11.4023 23.64 12.1328 23.4395C12.8633 23.2389 13.5293 22.8379 14.1309 22.2363L17.708 18.6699C18.3096 18.0684 18.707 17.4023 18.9004 16.6719C19.1009 15.9414 19.1009 15.2109 18.9004 14.4805C18.6999 13.75 18.2952 13.0804 17.6865 12.4717C17.3643 12.1423 16.9704 11.8773 16.5049 11.6768C16.0394 11.4762 15.4844 11.3473 14.8398 11.29L16.4727 9.63574ZM15.5166 18.6914C14.8936 18.5768 14.36 18.4049 13.916 18.1758C13.4792 17.9466 13.1068 17.6745 12.7988 17.3594C11.9036 16.4714 11.3092 15.4938 11.0156 14.4268C10.722 13.3597 10.722 12.2962 11.0156 11.2363C11.3164 10.1693 11.9072 9.19531 12.7881 8.31445L16.5049 4.58691C17.3857 3.70605 18.3561 3.11882 19.416 2.8252C20.4831 2.52441 21.5501 2.52083 22.6172 2.81445C23.6842 3.10807 24.6654 3.70247 25.5605 4.59766C26.4414 5.47852 27.0286 6.45247 27.3223 7.51953C27.623 8.58659 27.623 9.65365 27.3223 10.7207C27.0286 11.7878 26.445 12.7581 25.5713 13.6318L22.4883 16.7041C22.5814 16.2887 22.6029 15.8555 22.5527 15.4043C22.5026 14.946 22.3916 14.5199 22.2197 14.126L24.0566 12.2891C24.6582 11.6875 25.0592 11.0251 25.2598 10.3018C25.4674 9.57129 25.4674 8.84082 25.2598 8.11035C25.0592 7.37272 24.6582 6.70312 24.0566 6.10156C23.4408 5.48568 22.7676 5.08105 22.0371 4.8877C21.3138 4.68717 20.5869 4.68717 19.8564 4.8877C19.1331 5.08822 18.4635 5.49284 17.8477 6.10156L14.292 9.65723C13.6833 10.2588 13.2786 10.9248 13.0781 11.6553C12.8776 12.3857 12.8776 13.1162 13.0781 13.8467C13.2786 14.5771 13.6868 15.2503 14.3027 15.8662C14.6322 16.1885 15.026 16.4499 15.4844 16.6504C15.9499 16.8509 16.5049 16.9834 17.1494 17.0479L15.5166 18.6914Z" fill="white"/>
</svg>
