<svg width="28" height="28" viewBox="0 0 28 28" fill="none" xmlns="http://www.w3.org/2000/svg">
<path d="M13.9999 2.33331C7.55642 2.33331 2.33325 7.55648 2.33325 14C2.33325 20.4435 7.55642 25.6666 13.9999 25.6666C20.4434 25.6666 25.6666 20.4435 25.6666 14C25.6666 7.55648 20.4434 2.33331 13.9999 2.33331ZM13.9999 4.66665C19.1543 4.66665 23.3333 8.84565 23.3333 14C23.3333 19.1543 19.1543 23.3333 13.9999 23.3333C13.1417 23.3333 12.3147 23.2084 11.5253 22.9915C11.7736 22.4913 11.9963 21.9642 12.1178 21.4967C12.2519 20.9834 12.8014 18.89 12.8014 18.89C13.1584 19.5713 14.2018 20.15 15.3124 20.15C18.6176 20.15 20.9999 17.11 20.9999 13.3323C20.9999 9.70984 18.0448 6.99998 14.2415 6.99998C9.51062 6.99998 6.99992 10.1751 6.99992 13.6331C6.99992 15.2408 7.85538 17.2423 9.22388 17.8805C9.43154 17.9773 9.54291 17.9353 9.59074 17.7347C9.62807 17.5818 9.81324 16.837 9.89608 16.4905C9.92291 16.3809 9.91072 16.2846 9.82088 16.1761C9.36822 15.6266 9.00513 14.6179 9.00513 13.6764C9.00513 11.2579 10.8358 8.9186 13.9543 8.9186C16.647 8.9186 18.5321 10.7541 18.5321 13.3779C18.5321 16.3424 17.0352 18.3955 15.0868 18.3955C14.0112 18.3955 13.2032 17.5073 13.4622 16.4153C13.7713 15.1122 14.3713 13.7053 14.3713 12.765C14.3713 11.9238 13.9216 11.2223 12.9859 11.2223C11.8858 11.2223 11.0012 12.3589 11.0012 13.8838C11.0012 14.8544 11.3293 15.5107 11.3293 15.5107C11.3293 15.5107 10.2437 20.1038 10.0442 20.959C9.94532 21.381 9.91231 21.881 9.90975 22.3808C6.80832 20.8636 4.66659 17.6851 4.66659 14C4.66659 8.84565 8.84558 4.66665 13.9999 4.66665Z" fill="white"/>
</svg>
